<svg xmlns="http://www.w3.org/2000/svg" viewBox="0 0 29.77 28.33"><defs><style>.cls-1{fill:#fff;}</style></defs><g id="Layer_2" data-name="Layer 2"><g id="Layer_1-2" data-name="Layer 1"><g id="Group_505" data-name="Group 505"><path id="Path_137" data-name="Path 137" class="cls-1" d="M4.77,21.11a5.38,5.38,0,0,0,4.13,0V19.72a5.52,5.52,0,0,1-4.13.13Z"/><path id="Path_138" data-name="Path 138" class="cls-1" d="M1.17,11.92a.62.62,0,0,0-.34.42,1,1,0,0,0,.69,1.16h.06a.4.4,0,0,1,.32.39v.66a4.79,4.79,0,0,0,9.57.14v-.8a.4.4,0,0,1,.31-.39,1,1,0,0,0,.77-1.11s0,0,0-.06a.63.63,0,0,0-.47-.46l-.11,0c-.19,0-4.6.79-7.72-1.91-.59,0-1.07.05-1.38.05l-.12,2h0a.49.49,0,0,1-.52.46h0L2,12.44l-.62-.33A.88.88,0,0,1,1.17,11.92Z"/><path id="Path_139" data-name="Path 139" class="cls-1" d="M12.36,23.21l-2.07-.9h0l-1.11-.48a6.17,6.17,0,0,1-4.7,0L1.3,23.21A2.42,2.42,0,0,0,0,25.16v3.17H13.66V25.16a2.42,2.42,0,0,0-1.3-1.95Z"/><path id="Path_140" data-name="Path 140" class="cls-1" d="M15.23,0H26V1.45H15.23Z"/><path id="Path_141" data-name="Path 141" class="cls-1" d="M1.72,9.43v2l0,0,.25.13.11-1.91a.39.39,0,0,1,.4-.37c.05,0,4.73.22,7.35-1.82a.37.37,0,0,1,.53.06h0a.4.4,0,0,1-.06.55h0a10.65,10.65,0,0,1-5,1.83,9.67,9.67,0,0,0,6.15,1.3V9.44a5,5,0,0,0-1.21-3.27.4.4,0,0,1-.22-.24,4.83,4.83,0,0,0-6.84-.08l-.07.07A5,5,0,0,0,1.72,9.43Z"/><path id="Path_142" data-name="Path 142" class="cls-1" d="M28.88,1.19H26.75v.64a.38.38,0,0,1-.38.39H14.85a.38.38,0,0,1-.38-.39V1.19H11.71a.89.89,0,0,0-.89.9V5.6a5.75,5.75,0,0,1,1.44,3.83v1.7a1.38,1.38,0,0,1,1,1,1.74,1.74,0,0,1-1,2v.37a5.59,5.59,0,0,1-1.4,3.74v3.4l1.85.8h0a3.19,3.19,0,0,1,1.6,1.91H28.88a.89.89,0,0,0,.89-.9V2.09a.91.91,0,0,0-.89-.9ZM22.41,5.42h.23a.39.39,0,0,1,0,.78h-.23A.4.4,0,0,1,22,5.79.39.39,0,0,1,22.41,5.42Zm0,3.23h2.71a.39.39,0,0,1,.37.41.38.38,0,0,1-.37.36H22.41a.39.39,0,0,1,0-.77ZM21.64,12h.93a.39.39,0,0,1,0,.77h-.93a.38.38,0,0,1-.37-.4A.39.39,0,0,1,21.64,12ZM12.72,8.74A4.2,4.2,0,1,1,16.92,13a4.2,4.2,0,0,1-4.2-4.26Zm4,7.79a.39.39,0,0,1-.38.39H14.2a.4.4,0,0,1-.37-.41.39.39,0,0,1,.37-.37h2.17a.39.39,0,0,1,.38.39Zm1.6,4.26H14.2a.39.39,0,0,1,0-.77h4.15a.37.37,0,0,1,.36.4A.38.38,0,0,1,18.35,20.79Zm0-3.87H18a.39.39,0,0,1,0-.78h.34a.39.39,0,0,1,0,.78Zm.95-.39a.4.4,0,0,1,.39-.39h5a.39.39,0,0,1,0,.78h-5a.38.38,0,0,1-.38-.39h0Zm2.8,4.26H20A.39.39,0,0,1,20,20H22.1a.38.38,0,0,1,.37.4A.39.39,0,0,1,22.1,20.79Zm1.35,0h-.27a.39.39,0,0,1,0-.77h.27a.38.38,0,0,1,.37.4.39.39,0,0,1-.37.37Zm3.56,0H24.82a.39.39,0,0,1,0-.77H27a.37.37,0,0,1,.36.4A.38.38,0,0,1,27,20.79Zm0-3.87h-1a.39.39,0,0,1,0-.78h1a.39.39,0,0,1,0,.78Zm0-4.19H24.22a.39.39,0,0,1,0-.78H27a.39.39,0,0,1,0,.78Zm0-3.3h-.25A.4.4,0,0,1,26.39,9a.39.39,0,0,1,.37-.37H27a.39.39,0,0,1,0,.78ZM27,6.2H24.28a.39.39,0,0,1-.37-.41.4.4,0,0,1,.37-.37H27a.39.39,0,0,1,.36.41A.38.38,0,0,1,27,6.2Z"/><path id="Path_143" data-name="Path 143" class="cls-1" d="M16.91,12.22a3.49,3.49,0,1,0-3.43-3.54v.06A3.45,3.45,0,0,0,16.91,12.22Zm-2.2-3.45a.37.37,0,0,1,.53,0h0l.81.83,2.52-2.55a.39.39,0,0,1,.54,0h0a.38.38,0,0,1,0,.54l-2.79,2.84a.37.37,0,0,1-.53,0h0l-1.08-1.1a.39.39,0,0,1,0-.55Z"/></g></g></g></svg>