<svg xmlns="http://www.w3.org/2000/svg" xmlns:xlink="http://www.w3.org/1999/xlink" viewBox="0 0 1200.05 661.24"><defs><style>.cls-1{fill:none;}.cls-2{fill:url(#linear-gradient);}.cls-3{clip-path:url(#clip-path);}.cls-4{fill:#6826e3;}.cls-5{clip-path:url(#clip-path-2);}.cls-6{clip-path:url(#clip-path-3);}.cls-7{fill:#5822bd;}.cls-8{fill:#5920c2;}.cls-9{fill:#5320b3;}</style><linearGradient id="linear-gradient" x1="265.07" y1="718.63" x2="1182.34" y2="-447.76" gradientUnits="userSpaceOnUse"><stop offset="0.2" stop-color="#4d1da8"/><stop offset="0.37" stop-color="#5721c0"/><stop offset="0.56" stop-color="#6024d4"/><stop offset="0.69" stop-color="#6325db"/></linearGradient><clipPath id="clip-path" transform="translate(202.79 70.98)"><path class="cls-1" d="M496.55,125.23a88.74,88.74,0,1,1,0,177.48Z"/></clipPath><clipPath id="clip-path-2" transform="translate(202.79 70.98)"><path class="cls-1" d="M268.44,401.41a88.74,88.74,0,0,1,0-177.48Z"/></clipPath><clipPath id="clip-path-3" transform="translate(202.79 70.98)"><rect class="cls-1" width="750" height="500"/></clipPath></defs><g id="Layer_2" data-name="Layer 2"><g id="BACKGROUND"><rect class="cls-2" x="202.79" y="70.98" width="750" height="500"/><g class="cls-3"><path class="cls-4" d="M664.21,203.47a.5.5,0,0,1-.36-.14l-243-243.51a.5.5,0,0,1,0-.7.5.5,0,0,1,.71,0l243,243.5a.51.51,0,0,1,0,.71A.49.49,0,0,1,664.21,203.47Z" transform="translate(202.79 70.98)"/><path class="cls-4" d="M662.63,214.54a.5.5,0,0,1-.35-.15l-243-243.5a.51.51,0,0,1,0-.71.51.51,0,0,1,.71,0L663,213.69a.5.5,0,0,1,0,.7A.51.51,0,0,1,662.63,214.54Z" transform="translate(202.79 70.98)"/><path class="cls-4" d="M661.06,225.6a.47.47,0,0,1-.35-.14L417.72-18a.5.5,0,0,1,0-.7.5.5,0,0,1,.71,0l243,243.5a.51.51,0,0,1,0,.71A.5.5,0,0,1,661.06,225.6Z" transform="translate(202.79 70.98)"/><path class="cls-4" d="M659.49,236.67a.47.47,0,0,1-.35-.15L416.15-7a.5.5,0,0,1,0-.71.51.51,0,0,1,.71,0l243,243.51a.48.48,0,0,1,0,.7A.47.47,0,0,1,659.49,236.67Z" transform="translate(202.79 70.98)"/><path class="cls-4" d="M657.92,247.74a.47.47,0,0,1-.35-.15L414.58,4.08a.49.49,0,1,1,.7-.7l243,243.5a.5.5,0,0,1,0,.71A.49.49,0,0,1,657.92,247.74Z" transform="translate(202.79 70.98)"/><path class="cls-4" d="M656.35,258.8a.51.51,0,0,1-.36-.15L413,15.15a.5.5,0,0,1,.71-.71L656.7,258a.48.48,0,0,1,0,.7A.5.5,0,0,1,656.35,258.8Z" transform="translate(202.79 70.98)"/><path class="cls-4" d="M654.78,269.87a.51.51,0,0,1-.36-.15l-243-243.51a.5.5,0,0,1,0-.7.5.5,0,0,1,.71,0l243,243.5a.51.51,0,0,1,0,.71A.5.5,0,0,1,654.78,269.87Z" transform="translate(202.79 70.98)"/><path class="cls-4" d="M653.2,280.93a.54.54,0,0,1-.35-.14l-243-243.51a.5.5,0,0,1,.71-.71l243,243.51a.51.51,0,0,1,0,.71A.54.54,0,0,1,653.2,280.93Z" transform="translate(202.79 70.98)"/><path class="cls-4" d="M651.63,292a.49.49,0,0,1-.35-.15l-243-243.5a.5.5,0,1,1,.71-.71l243,243.5a.5.5,0,0,1,0,.71A.47.47,0,0,1,651.63,292Z" transform="translate(202.79 70.98)"/><path class="cls-4" d="M650.06,303.06a.5.5,0,0,1-.35-.14l-243-243.51a.5.5,0,1,1,.7-.7l243,243.5a.5.5,0,0,1-.35.85Z" transform="translate(202.79 70.98)"/><path class="cls-4" d="M648.49,314.13a.51.51,0,0,1-.36-.15l-243-243.5a.5.5,0,0,1,0-.71.48.48,0,0,1,.7,0l243,243.5a.5.5,0,0,1,0,.71A.49.49,0,0,1,648.49,314.13Z" transform="translate(202.79 70.98)"/><path class="cls-4" d="M646.92,325.19a.54.54,0,0,1-.36-.14l-243-243.51a.51.51,0,0,1,0-.71.5.5,0,0,1,.71,0l243,243.5a.51.51,0,0,1,0,.71A.54.54,0,0,1,646.92,325.19Z" transform="translate(202.79 70.98)"/><path class="cls-4" d="M645.34,336.26a.5.5,0,0,1-.35-.15L402,92.61a.51.51,0,0,1,0-.71.5.5,0,0,1,.71,0l243,243.5a.51.51,0,0,1,0,.71A.51.51,0,0,1,645.34,336.26Z" transform="translate(202.79 70.98)"/><path class="cls-4" d="M643.77,347.32a.52.52,0,0,1-.35-.14l-243-243.51a.51.51,0,0,1,0-.71.5.5,0,0,1,.71,0l243,243.5a.51.51,0,0,1,0,.71A.54.54,0,0,1,643.77,347.32Z" transform="translate(202.79 70.98)"/><path class="cls-4" d="M642.2,358.39a.47.47,0,0,1-.35-.15l-243-243.5a.5.5,0,0,1,0-.71.51.51,0,0,1,.71,0l243,243.51a.48.48,0,0,1,0,.7A.47.47,0,0,1,642.2,358.39Z" transform="translate(202.79 70.98)"/><path class="cls-4" d="M640.63,369.45a.5.5,0,0,1-.35-.14l-243-243.51a.49.49,0,1,1,.7-.7L641,368.6a.5.5,0,0,1,0,.71A.52.52,0,0,1,640.63,369.45Z" transform="translate(202.79 70.98)"/><path class="cls-4" d="M639.06,380.52a.51.51,0,0,1-.36-.15l-243-243.5a.5.5,0,1,1,.71-.71l243,243.51a.48.48,0,0,1,0,.7A.5.5,0,0,1,639.06,380.52Z" transform="translate(202.79 70.98)"/><path class="cls-4" d="M637.48,391.58a.49.49,0,0,1-.35-.14l-243-243.51a.5.5,0,0,1,0-.7.5.5,0,0,1,.71,0l243,243.5a.51.51,0,0,1,0,.71A.5.5,0,0,1,637.48,391.58Z" transform="translate(202.79 70.98)"/><path class="cls-4" d="M635.91,402.65a.5.5,0,0,1-.35-.15L392.57,159a.5.5,0,1,1,.71-.71l243,243.51a.5.5,0,0,1,0,.7A.51.51,0,0,1,635.91,402.65Z" transform="translate(202.79 70.98)"/><path class="cls-4" d="M634.34,413.71a.46.46,0,0,1-.35-.14L391,170.06a.48.48,0,0,1,0-.7.5.5,0,0,1,.71,0l243,243.5a.5.5,0,0,1,0,.71A.46.46,0,0,1,634.34,413.71Z" transform="translate(202.79 70.98)"/><path class="cls-4" d="M632.77,424.78a.47.47,0,0,1-.35-.15l-243-243.5a.5.5,0,0,1,0-.71.5.5,0,0,1,.7,0l243,243.51a.48.48,0,0,1,0,.7A.47.47,0,0,1,632.77,424.78Z" transform="translate(202.79 70.98)"/><path class="cls-4" d="M631.2,435.85a.51.51,0,0,1-.36-.15l-243-243.51a.49.49,0,0,1,.7-.7l243,243.5a.5.5,0,0,1,0,.71A.49.49,0,0,1,631.2,435.85Z" transform="translate(202.79 70.98)"/><path class="cls-4" d="M629.63,446.91a.51.51,0,0,1-.36-.15l-243-243.5a.5.5,0,0,1,.71-.71L630,446.06a.5.5,0,0,1-.35.85Z" transform="translate(202.79 70.98)"/><path class="cls-4" d="M628.05,458a.5.5,0,0,1-.35-.15l-243-243.5a.51.51,0,0,1,0-.71.5.5,0,0,1,.71,0l243,243.5a.51.51,0,0,1,0,.71A.51.51,0,0,1,628.05,458Z" transform="translate(202.79 70.98)"/><path class="cls-4" d="M626.48,469a.49.49,0,0,1-.35-.15l-243-243.5a.5.5,0,0,1,.71-.71l243,243.51a.5.5,0,0,1,0,.7A.51.51,0,0,1,626.48,469Z" transform="translate(202.79 70.98)"/><path class="cls-4" d="M624.91,480.11a.47.47,0,0,1-.35-.15l-243-243.5a.5.5,0,1,1,.71-.71l243,243.5a.5.5,0,0,1,0,.71A.47.47,0,0,1,624.91,480.11Z" transform="translate(202.79 70.98)"/></g><g class="cls-5"><path class="cls-4" d="M343.78,567.67a.5.5,0,0,1-.36-.14L100.44,324a.49.49,0,1,1,.7-.7l243,243.5a.5.5,0,0,1,0,.71A.47.47,0,0,1,343.78,567.67Z" transform="translate(202.79 70.98)"/><path class="cls-4" d="M345.35,556.61a.47.47,0,0,1-.35-.15L102,313a.5.5,0,0,1,0-.71.51.51,0,0,1,.71,0l243,243.5a.5.5,0,0,1,0,.71A.49.49,0,0,1,345.35,556.61Z" transform="translate(202.79 70.98)"/><path class="cls-4" d="M346.92,545.54a.5.5,0,0,1-.35-.14l-243-243.51a.48.48,0,0,1,0-.7.5.5,0,0,1,.71,0l243,243.5a.5.5,0,0,1-.36.85Z" transform="translate(202.79 70.98)"/><path class="cls-4" d="M348.49,534.48a.5.5,0,0,1-.35-.15l-243-243.5a.51.51,0,0,1,0-.71.5.5,0,0,1,.71,0l243,243.5a.51.51,0,0,1,0,.71A.51.51,0,0,1,348.49,534.48Z" transform="translate(202.79 70.98)"/><path class="cls-4" d="M350.06,523.41a.54.54,0,0,1-.35-.14l-243-243.51a.5.5,0,1,1,.71-.71l243,243.51a.51.51,0,0,1,0,.71A.54.54,0,0,1,350.06,523.41Z" transform="translate(202.79 70.98)"/><path class="cls-4" d="M351.64,512.35a.51.51,0,0,1-.36-.15l-243-243.5a.5.5,0,0,1,0-.71.48.48,0,0,1,.7,0l243,243.5a.5.5,0,0,1,0,.71A.5.5,0,0,1,351.64,512.35Z" transform="translate(202.79 70.98)"/><path class="cls-4" d="M353.21,501.28a.51.51,0,0,1-.36-.15l-243-243.5a.5.5,0,0,1,0-.71.5.5,0,0,1,.7,0l243,243.51a.5.5,0,0,1-.35.85Z" transform="translate(202.79 70.98)"/><path class="cls-4" d="M354.78,490.22a.47.47,0,0,1-.35-.15l-243-243.5a.5.5,0,0,1,.71-.71l243,243.5a.5.5,0,0,1,0,.71A.47.47,0,0,1,354.78,490.22Z" transform="translate(202.79 70.98)"/><path class="cls-4" d="M356.35,479.15A.49.49,0,0,1,356,479L113,235.5a.5.5,0,0,1,0-.71.51.51,0,0,1,.71,0l243,243.51a.5.5,0,0,1,0,.7A.51.51,0,0,1,356.35,479.15Z" transform="translate(202.79 70.98)"/><path class="cls-4" d="M357.92,468.09a.5.5,0,0,1-.35-.15l-243-243.51a.5.5,0,0,1,0-.7.5.5,0,0,1,.71,0l243,243.5a.51.51,0,0,1,0,.71A.51.51,0,0,1,357.92,468.09Z" transform="translate(202.79 70.98)"/><path class="cls-4" d="M359.5,457a.51.51,0,0,1-.36-.15l-243-243.5a.5.5,0,1,1,.71-.71l243,243.51a.5.5,0,0,1-.35.85Z" transform="translate(202.79 70.98)"/><path class="cls-4" d="M361.07,446a.51.51,0,0,1-.36-.15l-243-243.51a.49.49,0,1,1,.7-.7l243,243.5a.5.5,0,0,1,0,.71A.49.49,0,0,1,361.07,446Z" transform="translate(202.79 70.98)"/><path class="cls-4" d="M362.64,434.89a.47.47,0,0,1-.35-.15l-243-243.5a.5.5,0,0,1,0-.71.51.51,0,0,1,.71,0L363,434a.48.48,0,0,1,0,.7A.47.47,0,0,1,362.64,434.89Z" transform="translate(202.79 70.98)"/><path class="cls-4" d="M364.21,423.82a.47.47,0,0,1-.35-.14l-243-243.51a.48.48,0,0,1,0-.7.5.5,0,0,1,.71,0l243,243.5a.5.5,0,0,1,0,.71A.46.46,0,0,1,364.21,423.82Z" transform="translate(202.79 70.98)"/><path class="cls-4" d="M365.78,412.76a.5.5,0,0,1-.35-.15l-243-243.5a.5.5,0,1,1,.71-.71l243,243.51a.5.5,0,0,1,0,.7A.51.51,0,0,1,365.78,412.76Z" transform="translate(202.79 70.98)"/><path class="cls-4" d="M367.35,401.69a.49.49,0,0,1-.35-.14L124,158a.5.5,0,0,1,0-.7.5.5,0,0,1,.71,0l243,243.5a.51.51,0,0,1,0,.71A.5.5,0,0,1,367.35,401.69Z" transform="translate(202.79 70.98)"/><path class="cls-4" d="M368.93,390.63a.51.51,0,0,1-.36-.15L125.58,147a.5.5,0,0,1,.71-.71l243,243.51a.5.5,0,0,1-.35.85Z" transform="translate(202.79 70.98)"/><path class="cls-4" d="M370.5,379.56a.5.5,0,0,1-.35-.14l-243-243.51a.49.49,0,1,1,.7-.7l243,243.5a.5.5,0,0,1,0,.71A.52.52,0,0,1,370.5,379.56Z" transform="translate(202.79 70.98)"/><path class="cls-4" d="M372.07,368.5a.47.47,0,0,1-.35-.15l-243-243.5a.5.5,0,0,1,0-.71.5.5,0,0,1,.71,0l243,243.5a.5.5,0,0,1,0,.71A.47.47,0,0,1,372.07,368.5Z" transform="translate(202.79 70.98)"/><path class="cls-4" d="M373.64,357.43a.52.52,0,0,1-.35-.14l-243-243.51a.51.51,0,0,1,0-.71.5.5,0,0,1,.71,0l243,243.5a.51.51,0,0,1,0,.71A.54.54,0,0,1,373.64,357.43Z" transform="translate(202.79 70.98)"/><path class="cls-4" d="M375.21,346.37a.5.5,0,0,1-.35-.15l-243-243.5a.51.51,0,0,1,0-.71.5.5,0,0,1,.71,0l243,243.5a.51.51,0,0,1,0,.71A.51.51,0,0,1,375.21,346.37Z" transform="translate(202.79 70.98)"/><path class="cls-4" d="M376.79,335.3a.54.54,0,0,1-.36-.14l-243-243.51a.5.5,0,0,1,.71-.71l243,243.51a.51.51,0,0,1,0,.71A.54.54,0,0,1,376.79,335.3Z" transform="translate(202.79 70.98)"/><path class="cls-4" d="M378.36,324.24a.51.51,0,0,1-.36-.15L135,80.59a.5.5,0,0,1,0-.71.48.48,0,0,1,.7,0l243,243.5a.5.5,0,0,1,0,.71A.49.49,0,0,1,378.36,324.24Z" transform="translate(202.79 70.98)"/><path class="cls-4" d="M379.93,313.17a.5.5,0,0,1-.35-.14l-243-243.51a.5.5,0,0,1,0-.71.51.51,0,0,1,.71,0l243,243.51a.5.5,0,0,1-.35.85Z" transform="translate(202.79 70.98)"/><path class="cls-4" d="M381.5,302.11a.49.49,0,0,1-.35-.15l-243-243.5a.5.5,0,1,1,.71-.71l243,243.5a.51.51,0,0,1,0,.71A.51.51,0,0,1,381.5,302.11Z" transform="translate(202.79 70.98)"/><path class="cls-4" d="M383.07,291a.5.5,0,0,1-.35-.15l-243-243.5a.5.5,0,1,1,.71-.71l243,243.51a.5.5,0,0,1,0,.7A.51.51,0,0,1,383.07,291Z" transform="translate(202.79 70.98)"/></g><g class="cls-6"><line class="cls-7" x1="151.27" y1="60.86" x2="349.21" y2="258.7"/><path class="cls-8" d="M146.43,215.22A27.42,27.42,0,0,1,127,207.17L-70.95,9.33a27.49,27.49,0,0,1,0-38.89,27.5,27.5,0,0,1,38.89,0L165.87,168.27a27.5,27.5,0,0,1-19.44,46.95Z" transform="translate(202.79 70.98)"/><line class="cls-7" x1="126.47" y1="348.33" x2="271.82" y2="493.61"/><path class="cls-9" d="M69,450.13a27.39,27.39,0,0,1-19.44-8.05L-95.76,296.8a27.51,27.51,0,0,1,0-38.89,27.49,27.49,0,0,1,38.89,0L88.48,403.18A27.5,27.5,0,0,1,69,450.13Z" transform="translate(202.79 70.98)"/><line class="cls-7" x1="280.52" y1="313.75" x2="303.62" y2="336.85"/><path class="cls-8" d="M100.84,293.37a27.43,27.43,0,0,1-19.44-8.05l-23.11-23.1a27.5,27.5,0,1,1,38.88-38.9l23.11,23.1a27.5,27.5,0,0,1-19.44,47Z" transform="translate(202.79 70.98)"/><line class="cls-7" x1="27.5" y1="60.86" x2="231.85" y2="265.11"/><path class="cls-8" d="M29.06,221.62a27.39,27.39,0,0,1-19.44-8.05L-194.73,9.33a27.51,27.51,0,0,1,0-38.89,27.5,27.5,0,0,1,38.89,0L48.5,174.67a27.5,27.5,0,0,1-19.44,47Z" transform="translate(202.79 70.98)"/><line class="cls-7" x1="444.41" y1="265.11" x2="457.18" y2="277.88"/><path class="cls-8" d="M254.4,210.4a3.52,3.52,0,0,1-2.48-1L239.14,196.6a3.5,3.5,0,0,1,5-4.95l12.78,12.77a3.51,3.51,0,0,1-2.47,6Z" transform="translate(202.79 70.98)"/><line class="cls-7" x1="182.67" y1="3.5" x2="424.58" y2="245.29"/><path class="cls-8" d="M221.79,177.8a3.51,3.51,0,0,1-2.48-1L-22.59-65a3.49,3.49,0,0,1,0-4.95,3.51,3.51,0,0,1,4.95,0l241.9,241.79a3.5,3.5,0,0,1-2.47,6Z" transform="translate(202.79 70.98)"/><line class="cls-7" x1="1026.31" y1="529.5" x2="912.99" y2="416.24"/><path class="cls-9" d="M823.52,486a27.43,27.43,0,0,1-19.44-8L690.76,364.7a27.5,27.5,0,1,1,38.88-38.9L843,439.07A27.5,27.5,0,0,1,823.52,486Z" transform="translate(202.79 70.98)"/><line class="cls-7" x1="892.1" y1="627.61" x2="778.78" y2="514.35"/><path class="cls-9" d="M689.32,584.13a27.38,27.38,0,0,1-19.44-8L556.55,462.82a27.5,27.5,0,1,1,38.89-38.9L708.76,537.18a27.5,27.5,0,0,1-19.44,47Z" transform="translate(202.79 70.98)"/><line class="cls-7" x1="1172.55" y1="544.57" x2="892.1" y2="264.26"/><path class="cls-9" d="M969.77,501.09a27.38,27.38,0,0,1-19.44-8L669.88,212.73a27.5,27.5,0,1,1,38.88-38.9L989.21,454.14a27.5,27.5,0,0,1-19.44,46.95Z" transform="translate(202.79 70.98)"/><line class="cls-7" x1="800.86" y1="396.14" x2="788.08" y2="383.36"/><path class="cls-9" d="M598.07,328.65a3.49,3.49,0,0,1-2.47-1l-12.78-12.77a3.5,3.5,0,0,1,4.95-4.95l12.78,12.77a3.5,3.5,0,0,1-2.48,6Z" transform="translate(202.79 70.98)"/><line class="cls-7" x1="1062.6" y1="657.74" x2="820.69" y2="415.96"/><path class="cls-9" d="M859.81,590.26a3.51,3.51,0,0,1-2.48-1L615.43,347.45a3.5,3.5,0,0,1,5-4.95l241.9,241.79a3.5,3.5,0,0,1-2.47,6Z" transform="translate(202.79 70.98)"/></g></g></g></svg>