<svg xmlns="http://www.w3.org/2000/svg" viewBox="0 0 17.63 20.68"><defs><style>.cls-1{fill:#fff;}</style></defs><g id="Layer_2" data-name="Layer 2"><g id="Layer_1-2" data-name="Layer 1"><g id="Group_503" data-name="Group 503"><g id="Group_127" data-name="Group 127"><g id="Group_126" data-name="Group 126"><path id="Path_109" data-name="Path 109" class="cls-1" d="M9.73,0A8,8,0,0,0,1.79,7.91h0V9.22L.18,12.3a.87.87,0,0,0,.17,1.23A.88.88,0,0,0,1,13.7h.76v2.92a1.66,1.66,0,0,0,1.66,1.66l2.28-.34v2.3h0a.44.44,0,0,0,.47.44h.09l8.22-1.45a.7.7,0,0,0,.56-.67V13.72A7.9,7.9,0,0,0,9.73,0Zm4,12a5.76,5.76,0,0,1-7,.9h0a3.23,3.23,0,0,1-2.45.67.22.22,0,0,1-.19-.25.2.2,0,0,1,.12-.17,2.7,2.7,0,0,0,1.19-1.35l-.06,0a5.77,5.77,0,1,1,8.4.26Z"/><path id="Path_110" data-name="Path 110" class="cls-1" d="M9.91,6.25a1,1,0,1,0-.94-1A1,1,0,0,0,9.91,6.25Z"/><path id="Path_111" data-name="Path 111" class="cls-1" d="M11,10.51l-.26.14a1.4,1.4,0,0,1-.35.1.26.26,0,0,1-.29-.2,1.82,1.82,0,0,1,0-.32c0-.23.08-.45.11-.67.13-.67.25-1.34.37-2A2.57,2.57,0,0,0,10.65,7c0-.22-.14-.32-.36-.32H8.51a.74.74,0,0,0-.21,0c-.14,0-.2.09-.21.2a.23.23,0,0,0,.16.24l.31.06c.25,0,.32.11.32.36a.49.49,0,0,1,0,.12l-.3,1.76c-.06.34-.11.67-.16,1a1,1,0,0,0,.79,1,5.07,5.07,0,0,0,.68,0,1.77,1.77,0,0,0,1.25-.56.59.59,0,0,0,.13-.23.16.16,0,0,0,0-.21A.17.17,0,0,0,11,10.51Z"/></g></g></g></g></g></svg>