<svg xmlns="http://www.w3.org/2000/svg" viewBox="0 0 25.04 26.49"><defs><style>.cls-1{fill:#fff;}</style></defs><g id="Layer_2" data-name="Layer 2"><g id="Layer_1-2" data-name="Layer 1"><g id="Group_502" data-name="Group 502"><g id="Group_128" data-name="Group 128"><path id="Path_112" data-name="Path 112" class="cls-1" d="M4.35,4.28A2.85,2.85,0,0,0,5.42,2.09,2,2,0,0,0,3.49,0,2,2,0,0,0,1.56,2.09,2.92,2.92,0,0,0,2.63,4.28,3.55,3.55,0,0,0,0,7.17c0,1.24,7,1.24,7,0A3.55,3.55,0,0,0,4.35,4.28ZM3.49,8.1,2.51,7l.83-2.16h0L3,4.48a1.12,1.12,0,0,0,.48.1A1.12,1.12,0,0,0,4,4.48l-.32.4h0L4.47,7Z"/><path id="Path_113" data-name="Path 113" class="cls-1" d="M8.58,5.26V8.1H25V5.26ZM24.37,7.68H16.81v-2h7.56Z"/><path id="Path_114" data-name="Path 114" class="cls-1" d="M4.35,13.47a2.82,2.82,0,0,0,1.07-2.19A2,2,0,0,0,3.49,9.19a2,2,0,0,0-1.93,2.09,2.89,2.89,0,0,0,1.07,2.19A3.55,3.55,0,0,0,0,16.36c0,1.25,7,1.25,7,0A3.55,3.55,0,0,0,4.35,13.47ZM3.49,17.3l-1-1.06.83-2.16h0L3,13.68a1.52,1.52,0,0,0,.48.1,1.52,1.52,0,0,0,.48-.1l-.32.4h0l.83,2.16Z"/><path id="Path_115" data-name="Path 115" class="cls-1" d="M8.58,17.3H25V14.46H8.58Zm15.79-.42H21.28v-2h3.09Z"/><path id="Path_116" data-name="Path 116" class="cls-1" d="M4.35,22.66a2.82,2.82,0,0,0,1.07-2.18,2,2,0,0,0-1.93-2.09,2,2,0,0,0-1.93,2.09,2.88,2.88,0,0,0,1.07,2.18A3.55,3.55,0,0,0,0,25.56c0,1.24,7,1.24,7,0A3.56,3.56,0,0,0,4.35,22.66Zm-.86,3.83-1-1.06.83-2.16h0L3,22.87a1.23,1.23,0,0,0,1,0l-.32.4h0l.83,2.16Z"/><path id="Path_117" data-name="Path 117" class="cls-1" d="M8.58,26.49H25V23.65H8.58Zm15.79-.42H12.86v-2H24.37Z"/></g></g></g></g></svg>