<svg xmlns="http://www.w3.org/2000/svg" viewBox="0 0 27.16 28.33"><defs><style>.cls-1{fill:#fff;}</style></defs><g id="Layer_2" data-name="Layer 2"><g id="Layer_1-2" data-name="Layer 1"><path id="Path_1618" data-name="Path 1618" class="cls-1" d="M24.54,2.19h-.88a.92.92,0,0,0-.88,1V5.31a.93.93,0,0,1-.83,1,.91.91,0,0,1-.92-.9V1a.94.94,0,0,0-.83-1,.91.91,0,0,0-.92.9V2.19H17.09a.92.92,0,0,0-.88,1V5.31a.94.94,0,0,1-.83,1,.91.91,0,0,1-.92-.9V1a.94.94,0,0,0-.83-1,.91.91,0,0,0-.92.9V2.19H10.52a.92.92,0,0,0-.88,1V5.31a.94.94,0,0,1-.84,1,.91.91,0,0,1-.92-.9V1a.93.93,0,0,0-.83-1,.91.91,0,0,0-.92.9V2.19H2.63A2.76,2.76,0,0,0,0,5.05V8.31a.91.91,0,0,0,.88.95H21.55a1,1,0,0,1,.89,1,.94.94,0,0,1-.86.88H.88a.92.92,0,0,0-.88.95V25.48a2.75,2.75,0,0,0,2.63,2.85h21.9a2.75,2.75,0,0,0,2.63-2.85V5.05A2.75,2.75,0,0,0,24.54,2.19ZM15.66,21.56a1,1,0,0,1,0,1.9H11.5a.91.91,0,0,1-.87-.95V20.92a2.89,2.89,0,0,1,2.06-2.86L14,17.7a1.06,1.06,0,0,0,.76-1,1,1,0,0,0-.95-1.09H11.53a1,1,0,0,1,0-1.9h2.27a3,3,0,0,1,.71,5.82l-1.37.37a1,1,0,0,0-.73,1,.61.61,0,0,0,.58.63Z"/></g></g></svg>