<svg xmlns="http://www.w3.org/2000/svg" viewBox="0 0 21.8 23.64"><defs><style>.cls-1{fill:#fff;}</style></defs><g id="Layer_2" data-name="Layer 2"><g id="Layer_1-2" data-name="Layer 1"><g id="Group_501" data-name="Group 501"><path id="Path_92" data-name="Path 92" class="cls-1" d="M14.05,11.41V7.89L7.75,9.71v6l4.15-1.2v-.12A3.1,3.1,0,0,1,14.05,11.41Z"/><path id="Path_93" data-name="Path 93" class="cls-1" d="M7.75,5.26V8.1l6.3-1.82V.21L9.8,1.44a3.08,3.08,0,0,1,.1.8A3.08,3.08,0,0,1,7.75,5.26Z"/><path id="Path_94" data-name="Path 94" class="cls-1" d="M15.49,11.41a3.11,3.11,0,0,1,2.16,3,1.34,1.34,0,0,1,0,.2L21.8,16v-6l-6.31-2Z"/><path id="Path_95" data-name="Path 95" class="cls-1" d="M0,13.72l6.31,2v-6L0,7.69Z"/><path id="Path_96" data-name="Path 96" class="cls-1" d="M8.46,2.24A1.44,1.44,0,1,0,7,3.8,1.49,1.49,0,0,0,8.46,2.24Z"/><path id="Path_97" data-name="Path 97" class="cls-1" d="M4.15,2.24a3.28,3.28,0,0,1,.12-.88L0,0V6.06l6.31,2V5.26A3.1,3.1,0,0,1,4.15,2.24Z"/><path id="Path_98" data-name="Path 98" class="cls-1" d="M0,21.4l6.31,2V17.35L0,15.34Z"/><path id="Path_99" data-name="Path 99" class="cls-1" d="M15.49,17.45v4.18l6.31,2V17.58l-4.61-1.47A2.88,2.88,0,0,1,15.49,17.45Z"/><path id="Path_100" data-name="Path 100" class="cls-1" d="M16.21,14.43A1.44,1.44,0,1,0,14.77,16,1.5,1.5,0,0,0,16.21,14.43Z"/><path id="Path_101" data-name="Path 101" class="cls-1" d="M12.31,16.05,7.74,17.37v6.07l6.31-1.83V17.45A2.93,2.93,0,0,1,12.31,16.05Z"/><path id="Path_102" data-name="Path 102" class="cls-1" d="M15.49.23V6.29l6.31,2V2.24Z"/></g></g></g></svg>