<svg xmlns="http://www.w3.org/2000/svg" viewBox="0 0 30.59 18.82"><defs><style>.cls-1{fill:#fff;}</style></defs><g id="Layer_2" data-name="Layer 2"><g id="Layer_1-2" data-name="Layer 1"><g id="Group_504" data-name="Group 504"><g id="Group_124" data-name="Group 124"><path id="Path_104" data-name="Path 104" class="cls-1" d="M24.9,11.12c-.22.49-.48,1-.72,1.42l3.52,4.78H2.88l3.7-5s0-.07,0-.1A2.55,2.55,0,0,1,9,9.57a2.24,2.24,0,0,1,1,.24h2.44c-.26-.49-.52-1-.76-1.5H7.76L0,18.82H30.59Z"/><path id="Path_105" data-name="Path 105" class="cls-1" d="M18.88,8.31c-.24.5-.49,1-.75,1.5H19.6a3.49,3.49,0,0,1-.2-1.06,3.42,3.42,0,0,1,0-.45Z"/><path id="Path_106" data-name="Path 106" class="cls-1" d="M19.23,4.27A4.11,4.11,0,0,0,15.29,0a4.11,4.11,0,0,0-3.93,4.27c0,2.36,3.94,8.54,3.94,8.54S19.23,6.63,19.23,4.27Zm-5.9,0a2.06,2.06,0,0,1,2-2.14,2.07,2.07,0,0,1,2,2.14,2.06,2.06,0,0,1-2,2.13,2,2,0,0,1-2-2.13Z"/><path id="Path_107" data-name="Path 107" class="cls-1" d="M24.83,8.75a2.33,2.33,0,0,0-4.65-.37,2.29,2.29,0,0,0,0,.37c0,1.4,2.32,5,2.32,5S24.83,10.14,24.83,8.75Zm-3.49,0A1.17,1.17,0,1,1,22.5,10a1.22,1.22,0,0,1-1.16-1.26Z"/><path id="Path_108" data-name="Path 108" class="cls-1" d="M7.19,12.2c0,1.1,1.82,4,1.82,4s1.82-2.86,1.82-4a1.9,1.9,0,0,0-1.82-2H9A1.89,1.89,0,0,0,7.19,12.2Zm2.73,0a.91.91,0,1,1-.91-1A1,1,0,0,1,9.92,12.2Z"/></g></g></g></g></svg>