<svg xmlns="http://www.w3.org/2000/svg" viewBox="0 0 30.94 23.25"><defs><style>.cls-1{fill:#fff;}</style></defs><g id="Layer_2" data-name="Layer 2"><g id="Layer_1-2" data-name="Layer 1"><g id="Group_506" data-name="Group 506"><path id="Path_123" data-name="Path 123" class="cls-1" d="M12.65,6.81A5.07,5.07,0,0,0,7.8,12.07a5.07,5.07,0,0,0,4.85,5.25,5.06,5.06,0,0,0,4.84-5.25A5.06,5.06,0,0,0,12.65,6.81Zm2,5.17a1.23,1.23,0,0,1-.31.37c-.08.06-.46.25-.51.16l-.53-.91.06,3.47H12.2V11.59l-.56.84c-.05.09-.49-.13-.57-.18s-.32-.55-.27-.64l1.68-2.33c0-.06.12,0,.18,0s.22,0,.26.06l1.83,2.36a1.83,1.83,0,0,1-.07.32Z"/><path id="Path_124" data-name="Path 124" class="cls-1" d="M13.81,6.42V0H29.6s1,7.82,1.34,8.66H17A5.42,5.42,0,0,0,13.81,6.42Z"/><path id="Path_125" data-name="Path 125" class="cls-1" d="M9.49,16.77v6.48h8V16.31h5.35v6.94h7V9.93H17.62s1.75,3.1-1.24,6.46S9.72,17,9.49,16.77Z"/><path id="Path_126" data-name="Path 126" class="cls-1" d="M12.76,6.31V1.21H0v9.24H7.58A5.59,5.59,0,0,1,9.8,7.1,5,5,0,0,1,12.76,6.31Z"/><path id="Path_127" data-name="Path 127" class="cls-1" d="M4.14,15.07a3.23,3.23,0,0,0-.69.07,4,4,0,0,0-3.06,4A3.93,3.93,0,0,0,4.14,23.2a3.93,3.93,0,0,0,3.75-4.07A3.92,3.92,0,0,0,4.14,15.07Zm.25,6.5v.83H3.85v-.8a2.62,2.62,0,0,1-1.31-.35l.2-.54A2.47,2.47,0,0,0,4,21.06c.6,0,1-.33,1-.79s-.34-.71-1-.94C3.16,19,2.62,18.64,2.62,18a1.35,1.35,0,0,1,1.29-1.29v-.8h.53v.78a2.36,2.36,0,0,1,1.11.27l-.21.53a2.14,2.14,0,0,0-1.08-.27c-.66,0-.91.37-.91.68s.32.63,1.06.91,1.33.75,1.33,1.46a1.43,1.43,0,0,1-1.35,1.35Z"/><rect id="Rectangle_96" data-name="Rectangle 96" class="cls-1" x="18.61" y="17.32" width="3.22" height="5.82"/></g></g></g></svg>