<svg xmlns="http://www.w3.org/2000/svg" width="27.161" height="28.332" viewBox="0 0 27.161 28.332">
  <path id="Path_1618" data-name="Path 1618" d="M24.533,12h-.876a.915.915,0,0,0-.876.95v2.171a.94.94,0,0,1-.834.976.911.911,0,0,1-.919-.949V10.784a.939.939,0,0,0-.834-.976.911.911,0,0,0-.918.949V12h-2.19a.915.915,0,0,0-.876.95v2.171a.94.94,0,0,1-.834.976.911.911,0,0,1-.919-.949V10.784a.939.939,0,0,0-.834-.976.911.911,0,0,0-.918.949V12h-2.19a.915.915,0,0,0-.876.95v2.171A.94.94,0,0,1,8.8,16.1a.911.911,0,0,1-.919-.949V10.784a.939.939,0,0,0-.834-.976.911.911,0,0,0-.918.949V12h-3.5A2.746,2.746,0,0,0,0,14.855v3.267a.915.915,0,0,0,.876.95H21.551a.953.953,0,0,1,.025,1.9H.876a.915.915,0,0,0-.876.95V35.287a2.747,2.747,0,0,0,2.629,2.851h21.9a2.747,2.747,0,0,0,2.629-2.851V14.855A2.746,2.746,0,0,0,24.533,12ZM15.662,31.367a.953.953,0,0,1-.025,1.9H11.5a.915.915,0,0,1-.876-.95V30.732a2.913,2.913,0,0,1,2.061-2.863l1.34-.363a1.056,1.056,0,0,0,.76-.989,1.017,1.017,0,0,0-.968-1.088H11.525a.953.953,0,0,1-.025-1.9h2.268a2.985,2.985,0,0,1,.709,5.815l-1.367.371a1.039,1.039,0,0,0-.734,1.019.612.612,0,0,0,.586.635Z" transform="translate(0 -9.807)" fill="#fff"/>
</svg>
